<!-- Generator: Adobe Illustrator 24.2.1, SVG Export Plug-In  -->
<svg version="1.1" xmlns="http://www.w3.org/2000/svg" xmlns:xlink="http://www.w3.org/1999/xlink" x="0px" y="0px"
	 width="617.838px" height="435.8px" viewBox="0 0 617.838 435.8"
	 style="overflow:visible;enable-background:new 0 0 617.838 435.8;" xml:space="preserve">
<style type="text/css">
	.st0{fill-rule:evenodd;clip-rule:evenodd;fill:#FFFFFF;}
</style>
<defs>
</defs>
<path class="st0" d="M614.509,130.023c-4.285-58.827-15.159-119.605-91.33-123.996c-139.366-8.035-289.156-8.035-428.521,0
	C18.487,10.418,7.614,71.195,3.328,130.023c-4.438,60.93-4.438,114.824,0,175.754c4.285,58.827,15.159,119.605,91.33,123.996
	c139.366,8.035,289.156,8.035,428.521,0c76.171-4.392,87.045-65.169,91.33-123.996C618.947,244.847,618.947,190.953,614.509,130.023
	z M245.868,298.183V124.776l165.434,86.703L245.868,298.183z"/>
</svg>