<!-- Generator: Adobe Illustrator 24.2.1, SVG Export Plug-In  -->
<svg version="1.1" xmlns="http://www.w3.org/2000/svg" xmlns:xlink="http://www.w3.org/1999/xlink" x="0px" y="0px"
	 width="466.431px" height="479.22px" viewBox="0 0 466.431 479.22"
	 style="overflow:visible;enable-background:new 0 0 466.431 479.22;" xml:space="preserve">
<style type="text/css">
	.st0{fill:#FFFFFF;}
</style>
<defs>
</defs>
<g>
	<path class="st0" d="M330.737,479.22H135.693C61.062,479.22,0,418.158,0,343.527V135.693C0,61.062,61.062,0,135.693,0h195.044
		c74.631,0,135.693,61.062,135.693,135.693v207.834C466.431,418.158,405.369,479.22,330.737,479.22z M330.737,443.365
		c26.518,0,51.548-10.427,70.479-29.358s29.357-43.962,29.357-70.479V135.693c0-26.518-10.426-51.548-29.357-70.479
		s-43.962-29.358-70.479-29.358H135.693c-26.518,0-51.548,10.426-70.479,29.358s-29.358,43.962-29.358,70.479v207.833
		c0,26.518,10.426,51.548,29.358,70.479s43.962,29.358,70.479,29.358H330.737z"/>
	<path class="st0" d="M362.376,237.76c0,70.936-57.505,128.44-128.44,128.44s-128.44-57.505-128.44-128.44
		S163,109.32,233.936,109.32S362.376,166.825,362.376,237.76z M233.318,153.758c-46.45,0-84.104,37.655-84.104,84.104
		s37.655,84.104,84.104,84.104s84.104-37.655,84.104-84.104S279.767,153.758,233.318,153.758z"/>
	<circle class="st0" cx="364.438" cy="107.322" r="30.413"/>
</g>
</svg>